<svg width="15" height="12" viewBox="0 0 15 12" fill="none" xmlns="http://www.w3.org/2000/svg">
<path fill-rule="evenodd" clip-rule="evenodd" d="M13.5055 -0.000488281C13.8708 -0.000488281 14.1668 0.296178 14.1668 0.661512V11.3375C14.1643 11.7018 13.8698 11.9966 13.5055 11.9995H1.49483C1.12948 11.9991 0.833496 11.7029 0.833496 11.3375V0.661512C0.836035 0.297215 1.13054 0.00241731 1.49483 -0.000488281H13.5055ZM11.5002 7.99951H3.50016V9.33285H11.5002V7.99951ZM7.50016 2.66618H3.50016V6.66618H7.50016V2.66618ZM11.5002 5.33285H8.8335V6.66618H11.5002V5.33285ZM6.16683 3.99951V5.33285H4.8335V3.99951H6.16683ZM11.5002 2.66618H8.8335V3.99951H11.5002V2.66618Z" fill="#000091"/>
</svg>
