<svg width="15" height="14" viewBox="0 0 15 14" fill="none" xmlns="http://www.w3.org/2000/svg">
<path fill-rule="evenodd" clip-rule="evenodd" d="M14.1668 1.99951V11.3328C14.1668 11.701 13.8684 11.9995 13.5002 11.9995H8.16683V13.3328H6.8335V11.9995H1.50016C1.13197 11.9995 0.833496 11.701 0.833496 11.3328V1.99951H14.1668ZM4.8335 4.66618C3.72893 4.66618 2.8335 5.56161 2.8335 6.66618C2.8335 7.77075 3.72893 8.66618 4.8335 8.66618C5.93807 8.66618 6.8335 7.77075 6.8335 6.66618H4.8335V4.66618ZM12.1668 7.33284H8.16683V8.66618H12.1668V7.33284ZM12.1668 4.66618H8.16683V5.99951H12.1668V4.66618ZM14.1668 -0.000488281V1.33284H0.833496V-0.000488281H14.1668Z" fill="#000091"/>
</svg>
